Title                            : Sucker Punch
Year                             : 2011
Genre                            : Action | Adventure | Fantasy
iMDB URL                         : http://www.imdb.com/title/tt0978764/

Complete name                    : Sucker.Punch.Extended.Cut.2011.BRRIP.720P.H264-ZEKTORM.mp4
Format                           : MPEG-4
Format profile                   : Base Media
Codec ID                         : isom
File size                        : 2.83 GiB
Duration                         : 2h 7mn
Overall bit rate                 : 3180 Kbps
Subtitles                        : English (Format: srt)

Video
ID                               : 1
Format                           : AVC
Format/Info                      : Advanced Video Codec
Format profile                   : High@L4.0
Format settings, CABAC           : Yes
Format settings, ReFrames        : 12 frames
Codec ID                         : avc1
Codec ID/Info                    : Advanced Video Coding
Duration                         : 2h 7mn
Bit rate mode                    : Variable
Bit rate                         : 2739 Kbps
Width                            : 1280 pixels
Height                           : 528 pixels
Display aspect ratio             : 2.424
Frame rate mode                  : Constant
Frame rate                       : 23.976 fps
Resolution                       : 24 bits
Colorimetry                      : 4:2:0
Scan type                        : Progressive
Bits/(Pixel*Frame)               : 0.169
Stream size                      : 2.44 GiB (86%)
Title                            : Video
Writing library                  : x264

Audio
ID                               : 2
Format                           : AAC
Format/Info                      : Advanced Audio Codec
Format version                   : Version 4
Format profile                   : LC
Format settings, SBR             : No
Codec ID                         : 40
Duration                         : 2h 7mn
Bit rate mode                    : Variable
Bit rate                         : 439 Kbps
Maximum bit rate                 : 620 Kbps
Channel(s)                       : 6 channels
Channel positions                : Front: L C R, Rear: L R, LFE
Sampling rate                    : 48.0 KHz
Resolution                       : 16 bits
Stream size                      : 400 MiB (14%)
Language                         : English


Screenshots:

[img]http://img228.imageshack.us/img228/3695/snapspe1.png[/img]

[img]http://img190.imageshack.us/img190/5182/snapspe2.png[/img]

[img]http://img685.imageshack.us/img685/568/snapspe3.png[/img]

[img]http://img36.imageshack.us/img36/4642/snapspe4.png[/img]

[img]http://img20.imageshack.us/img20/1113/snapspe5.png[/img]
